<svg xmlns="http://www.w3.org/2000/svg" width="256" height="256" viewBox="0 0 100 100"><rect width="100" height="100" rx="20" fill="#37474f"></rect><path fill="#fff" d="M57.29 82.40L57.29 82.40L42.71 82.40Q41 82.40 40.23 81.64Q39.47 80.87 39.47 79.16L39.47 79.16L39.47 34.97L26.24 34.97Q24.53 34.97 23.77 34.21Q23.00 33.44 23.00 31.73L23.00 31.73L23.00 20.84Q23.00 19.13 23.77 18.37Q24.53 17.60 26.24 17.60L26.24 17.60L73.76 17.60Q75.47 17.60 76.23 18.37Q77 19.13 77 20.84L77 20.84L77 31.73Q77 33.44 76.23 34.21Q75.47 34.97 73.76 34.97L73.76 34.97L60.53 34.97L60.53 79.16Q60.53 80.87 59.77 81.64Q59 82.40 57.29 82.40Z"></path></svg>
